<?xml version="1.0" standalone="no"?>
<!DOCTYPE svg PUBLIC "-//W3C//DTD SVG 20010904//EN"
 "http://www.w3.org/TR/2001/REC-SVG-20010904/DTD/svg10.dtd">
<svg version="1.0" xmlns="http://www.w3.org/2000/svg"
 width="192.000000pt" height="256.000000pt" viewBox="0 0 192.000000 256.000000"
 preserveAspectRatio="xMidYMid meet">

<g transform="translate(0.000000,256.000000) scale(0.100000,-0.100000)"
fill="#000000" stroke="none">
<path d="M1112 1708 c-15 -15 -15 -37 -1 -94 l11 -44 48 0 c25 0 49 3 52 6 10
9 -23 119 -40 132 -20 15 -54 16 -70 0z"/>
<path d="M552 1698 c-6 -7 -17 -39 -25 -70 l-15 -58 53 0 c54 0 54 0 64 38 14
49 14 75 -1 90 -16 16 -63 15 -76 0z"/>
<path d="M1517 1412 c-10 -11 -26 -42 -36 -68 -15 -40 -24 -50 -46 -52 -14 -2
-34 3 -42 10 -15 11 -16 11 -8 -7 5 -11 10 -42 12 -70 5 -65 -19 -113 -72
-142 -56 -32 -75 -30 -75 7 0 21 5 30 16 30 8 0 29 13 45 29 49 50 33 137 -28
156 -21 6 -23 3 -23 -29 0 -29 -5 -38 -27 -50 -74 -38 -144 -143 -159 -234
l-7 -42 -136 0 c-75 0 -159 -3 -187 -6 l-51 -6 -6 46 c-4 25 -16 64 -26 85
-21 41 -95 111 -118 111 -27 0 -53 39 -53 80 0 22 -4 40 -9 40 -23 0 -71 -53
-72 -78 0 -27 0 -27 -11 -4 -13 26 -21 27 -38 7 -16 -20 -6 -75 21 -109 20
-26 79 -38 79 -16 0 6 9 10 19 10 20 0 24 -8 36 -67 7 -33 6 -33 -33 -33 -68
0 -135 -80 -119 -141 4 -14 0 -19 -14 -19 -38 0 -76 -29 -93 -69 -8 -22 -38
-68 -66 -103 -53 -66 -62 -85 -31 -68 32 17 96 12 123 -10 l25 -19 23 24 c14
15 35 25 51 25 34 0 85 41 93 75 4 15 13 25 25 25 22 0 82 -131 100 -218 13
-61 35 -92 48 -68 5 10 51 22 129 35 152 26 153 26 120 -4 -15 -14 -32 -38
-37 -54 -10 -27 -16 -30 -101 -46 -49 -9 -96 -14 -104 -11 -9 3 -16 -3 -18
-17 -9 -42 -66 -339 -66 -343 0 -2 80 -3 178 -2 l177 3 3 28 c3 22 -8 43 -43
88 l-46 59 21 107 c12 60 23 109 24 111 2 1 53 11 114 22 99 19 114 19 146 6
49 -20 65 -51 83 -161 15 -89 18 -96 37 -92 12 3 89 20 172 37 l150 32 -4 28
c-3 20 -21 39 -70 75 -57 40 -71 57 -95 109 -42 93 -115 163 -198 191 l-45 15
4 73 c5 122 8 129 54 156 24 13 65 45 93 71 27 26 64 55 82 64 39 20 56 48 59
101 3 51 36 179 51 197 21 24 33 67 25 88 -8 21 -8 21 -25 2z m-606 -628 c36
-18 49 -30 45 -40 -3 -9 -6 -32 -6 -52 0 -53 -9 -61 -76 -68 l-59 -6 -22 46
c-13 26 -23 52 -23 58 0 14 70 88 82 88 5 0 31 -12 59 -26z m283 -261 c-9 -37
-7 -36 -40 -18 -16 8 -38 15 -48 15 -27 0 -8 17 24 23 64 11 71 9 64 -20z"/>
<path d="M1112 1354 c-14 -10 -22 -26 -22 -44 0 -72 94 -82 115 -13 4 17 -1
29 -19 48 -29 29 -43 31 -74 9z"/>
<path d="M584 1352 c-6 -4 -17 -18 -24 -31 -10 -20 -9 -27 7 -50 24 -32 58
-38 84 -15 50 45 -12 133 -67 96z"/>
<path d="M1008 1333 c-12 -3 -18 -14 -18 -35 0 -21 -10 -40 -34 -64 -28 -28
-42 -34 -76 -34 -34 0 -48 6 -76 34 -24 24 -34 43 -34 65 0 27 -4 31 -26 31
-25 0 -26 -2 -21 -42 15 -112 147 -176 238 -115 48 32 79 83 79 128 0 22 -3
38 -7 38 -5 -1 -16 -3 -25 -6z"/>
<path d="M753 1095 c-3 -8 -3 -21 0 -28 6 -16 131 -52 146 -42 11 6 16 45 6
45 -3 0 -37 9 -76 20 -60 16 -71 17 -76 5z"/>
<path d="M130 521 c-23 -16 -1 -63 41 -85 l36 -20 37 23 c20 13 35 28 33 34
-11 35 -115 69 -147 48z"/>
</g>
</svg>
